<svg xmlns="http://www.w3.org/2000/svg" xmlns:xlink="http://www.w3.org/1999/xlink" width="200" zoomAndPan="magnify" viewBox="0 0 150 149.999998" height="200" preserveAspectRatio="xMidYMid meet" version="1.0"><defs><clipPath id="a2682fffeb"><path d="M 0 2.25 L 150 2.25 L 150 147.75 L 0 147.75 Z M 0 2.25 " clip-rule="nonzero"/></clipPath></defs><g clip-path="url(#a2682fffeb)"><path fill="#2756b7" d="M 86.46875 129.058594 L 113.578125 29.363281 C 123.398438 38.105469 130.226562 50.058594 132.300781 63.765625 L 149.992188 63.765625 C 149.171875 56.53125 147.363281 49.769531 144.578125 43.179688 C 140.789062 34.21875 135.363281 26.144531 128.457031 19.238281 C 125.382812 16.167969 122.085938 13.371094 118.582031 10.902344 C 114.207031 7.8125 109.515625 5.199219 104.539062 3.09375 C 103.941406 2.839844 103.339844 2.589844 102.734375 2.351562 L 75.246094 103.496094 L 47.757812 2.351562 C 47.152344 2.589844 46.554688 2.832031 45.953125 3.085938 C 40.976562 5.1875 36.28125 7.800781 31.910156 10.886719 C 28.40625 13.359375 25.109375 16.136719 22.035156 19.207031 C 15.128906 26.113281 9.703125 34.160156 5.914062 43.121094 C 1.988281 52.40625 0 62.261719 0 72.414062 C 0 82.566406 1.988281 92.421875 5.914062 101.707031 C 9.707031 110.667969 15.132812 118.714844 22.039062 125.621094 C 28.945312 132.53125 36.992188 137.953125 45.957031 141.746094 C 51.609375 144.136719 57.476562 145.808594 63.488281 146.753906 C 65.320312 147.039062 67.164062 147.257812 69.019531 147.410156 C 71.082031 147.578125 73.160156 147.660156 75.246094 147.660156 C 77.339844 147.660156 79.414062 147.578125 81.472656 147.410156 C 83.332031 147.253906 85.175781 147.039062 87.003906 146.753906 C 93.023438 145.808594 98.886719 144.136719 104.539062 141.746094 C 113.5 137.953125 121.546875 132.53125 128.457031 125.621094 C 135.363281 118.714844 140.789062 110.691406 144.578125 101.726562 C 147.367188 95.140625 149.175781 88.289062 149.992188 81.222656 L 132.300781 81.222656 C 128.632812 105.0625 110.125 124.378906 86.46875 129.058594 Z M 17.527344 72.414062 C 17.527344 55.285156 25.027344 39.875 36.917969 29.292969 L 64.027344 129.035156 C 37.550781 123.800781 17.527344 100.402344 17.527344 72.414062 Z M 17.527344 72.414062 " fill-opacity="1" fill-rule="nonzero"/><path fill="#2756b7" d="M 86.46875 129.058594 L 113.578125 29.363281 C 123.398438 38.105469 130.226562 50.058594 132.300781 63.765625 L 149.992188 63.765625 C 149.171875 56.53125 147.363281 49.769531 144.578125 43.179688 C 140.789062 34.21875 135.363281 26.144531 128.457031 19.238281 C 125.382812 16.167969 122.085938 13.371094 118.582031 10.902344 C 114.207031 7.8125 109.515625 5.199219 104.539062 3.09375 C 103.941406 2.839844 103.339844 2.589844 102.734375 2.351562 L 75.246094 103.496094 L 47.757812 2.351562 C 47.152344 2.589844 46.554688 2.832031 45.953125 3.085938 C 40.976562 5.1875 36.28125 7.800781 31.910156 10.886719 C 28.40625 13.359375 25.109375 16.136719 22.035156 19.207031 C 15.128906 26.113281 9.703125 34.160156 5.914062 43.121094 C 1.988281 52.40625 0 62.261719 0 72.414062 C 0 82.566406 1.988281 92.421875 5.914062 101.707031 C 9.707031 110.667969 15.132812 118.714844 22.039062 125.621094 C 28.945312 132.53125 36.992188 137.953125 45.957031 141.746094 C 51.609375 144.136719 57.476562 145.808594 63.488281 146.753906 C 65.320312 147.039062 67.164062 147.257812 69.019531 147.410156 C 71.082031 147.578125 73.160156 147.660156 75.246094 147.660156 C 77.339844 147.660156 79.414062 147.578125 81.472656 147.410156 C 83.332031 147.253906 85.175781 147.039062 87.003906 146.753906 C 93.023438 145.808594 98.886719 144.136719 104.539062 141.746094 C 113.5 137.953125 121.546875 132.53125 128.457031 125.621094 C 135.363281 118.714844 140.789062 110.691406 144.578125 101.726562 C 147.367188 95.140625 149.175781 88.289062 149.992188 81.222656 L 132.300781 81.222656 C 128.632812 105.0625 110.125 124.378906 86.46875 129.058594 Z M 17.527344 72.414062 C 17.527344 55.285156 25.027344 39.875 36.917969 29.292969 L 64.027344 129.035156 C 37.550781 123.800781 17.527344 100.402344 17.527344 72.414062 Z M 17.527344 72.414062 " fill-opacity="1" fill-rule="nonzero"/></g></svg>